<svg width="127" height="89" viewBox="0 0 127 89" fill="none" xmlns="http://www.w3.org/2000/svg">
<path d="M25.0132 32.0072C24.9818 31.9493 25.0162 31.7846 25.1164 31.513C25.213 31.221 25.3108 30.8758 25.4099 30.4776C25.5258 30.0552 25.6242 29.5936 25.7051 29.0928C25.8029 28.5678 25.8374 28.0435 25.8085 27.5197C25.8002 26.9923 25.7097 26.4794 25.5372 25.9809C25.3647 25.4825 25.0624 25.0281 24.6304 24.6177C24.3819 24.4076 24.0506 24.3286 23.6366 24.3804C23.2396 24.4081 22.7991 24.5492 22.3151 24.8038C21.848 25.0342 21.3664 25.3624 20.8704 25.7884C20.3912 26.1902 19.9639 26.6463 19.5885 27.1568C19.2095 27.6467 18.9011 28.1771 18.6632 28.7479C18.4459 29.315 18.3638 29.869 18.4168 30.4097C18.4518 30.8477 18.5326 31.246 18.6592 31.6045C18.8064 31.9593 18.9687 32.2797 19.1461 32.5658C19.3234 32.8518 19.5074 33.1155 19.6981 33.3569C19.8887 33.5983 20.0637 33.8108 20.223 33.9942C20.4377 34.2525 20.7503 34.5253 21.1606 34.8126C21.5708 35.0999 22.021 35.433 22.5109 35.812C22.9972 36.1705 23.4943 36.5906 24.0024 37.0722C24.5104 37.5538 24.9798 38.1163 25.4105 38.7596C25.8413 39.4029 26.1942 40.1445 26.4692 40.9845C26.7442 41.8245 26.9022 42.7804 26.9431 43.852C26.9851 45.4101 26.8486 46.7352 26.5334 47.8273C26.2219 48.94 25.8229 49.8565 25.3365 50.577C24.8705 51.2938 24.3636 51.838 23.8156 52.2096C23.2713 52.6017 22.8114 52.8732 22.4361 53.024C22.1392 53.1398 21.7789 53.2563 21.3553 53.3733C20.9558 53.5072 20.5129 53.5747 20.0265 53.5758C19.5643 53.5939 19.0774 53.5316 18.5657 53.3892C18.0576 53.2672 17.5791 53.0131 17.1302 52.6268C16.6089 52.1899 16.1727 51.6956 15.8216 51.1441C15.5055 50.6709 15.2365 50.1049 15.0145 49.4459C14.7756 48.8111 14.7057 48.1147 14.8048 47.3568C14.9364 47.1432 15.0818 46.9484 15.2411 46.7722C15.4005 46.596 15.5634 46.4403 15.73 46.3052C15.9134 46.1459 16.109 45.9951 16.3166 45.8527C16.5688 45.7236 16.8229 45.6048 17.0787 45.4962C17.2972 45.4154 17.5295 45.3533 17.7757 45.3098C18.0388 45.2423 18.2904 45.2297 18.5306 45.2719C18.2843 45.675 18.1268 46.0412 18.058 46.3707C18.0048 46.5493 17.9686 46.7038 17.9493 46.8341C17.936 47.2384 17.9866 47.7055 18.1012 48.2353C18.2399 48.782 18.445 49.2853 18.7164 49.7451C19.012 50.2219 19.3753 50.6021 19.8061 50.8857C20.2405 51.1899 20.7672 51.298 21.3864 51.21C22.8913 50.9869 23.9572 49.5932 24.5839 47.0287C24.8024 46.2286 24.8448 45.449 24.7109 44.6899C24.5976 43.9271 24.3768 43.2151 24.0487 42.5537C23.741 41.8887 23.3706 41.2876 22.9374 40.7505C22.5211 40.1893 22.1109 39.7222 21.7066 39.3492C21.3024 38.9762 20.8209 38.5851 20.2622 38.1759C19.7204 37.7426 19.1713 37.2682 18.6151 36.7528C18.0588 36.2374 17.5345 35.6635 17.0422 35.0311C16.5704 34.395 16.2006 33.6775 15.9328 32.8785C15.5661 31.7585 15.4841 30.6941 15.687 29.6852C15.9068 28.6521 16.2714 27.7205 16.7808 26.8903C17.3107 26.0564 17.9155 25.3469 18.595 24.7617C19.2951 24.1728 19.9317 23.7644 20.505 23.5364C23.6924 22.2974 25.9547 22.4697 27.2916 24.0532C27.8419 24.6543 28.2044 25.3308 28.3793 26.0827C28.5542 26.8346 28.6277 27.5515 28.5999 28.2333C28.5889 28.891 28.5206 29.4637 28.3951 29.9512C28.2864 30.4146 28.2049 30.6723 28.1506 30.7242C28.0492 30.869 27.8778 31.0367 27.6364 31.2274C27.395 31.418 26.9876 31.6273 26.4144 31.8554C26.2575 31.9253 26.0969 31.9748 25.9328 32.0037C25.7892 32.0291 25.6335 32.0459 25.4658 32.0544C25.298 32.0628 25.1471 32.0471 25.0132 32.0072ZM43.9787 36.6278C43.5224 37.6391 42.9803 38.6443 42.3526 39.6435C41.7213 40.6222 41.0243 41.5278 40.2614 42.3604C39.5155 43.1689 38.7171 43.8597 37.8661 44.4329C37.0358 45.0024 36.1897 45.3631 35.328 45.515C34.8766 45.5946 34.3643 45.5686 33.7911 45.437C33.242 45.3223 32.7122 45.0772 32.2018 44.7018C31.6914 44.3264 31.2395 43.8032 30.8461 43.1321C30.4733 42.4574 30.2477 41.5981 30.1694 40.5542C30.1032 39.6985 30.2041 38.7711 30.4721 37.7719C30.7571 36.7485 31.1489 35.7909 31.6474 34.8991C32.1665 34.0037 32.7809 33.229 33.4906 32.575C34.2208 31.9174 34.9963 31.5162 35.8169 31.3715C36.5966 31.234 37.1952 31.3295 37.6127 31.6578C38.0302 31.9861 38.2691 32.4411 38.3294 33.0228C38.38 33.6697 38.2984 34.287 38.0847 34.8747C37.8915 35.4588 37.6278 36.0024 37.2934 36.5056C36.959 37.0088 36.5867 37.4764 36.1763 37.9084C35.7864 38.3368 35.4116 38.7308 35.0519 39.0904C34.6548 39.4777 34.2764 39.8512 33.9167 40.2108C33.5534 40.5498 33.2378 40.8594 32.9698 41.1393C33.0808 41.6486 33.2491 42.0632 33.4747 42.383C33.7004 42.7029 33.9562 42.9539 34.2422 43.1362C34.5246 43.298 34.8287 43.403 35.1545 43.4513C35.4972 43.4755 35.8328 43.4586 36.161 43.4008C36.8586 43.2778 37.549 42.9339 38.2321 42.3692C38.9116 41.784 39.5562 41.1203 40.1657 40.3782C40.7922 39.6119 41.3535 38.836 41.8496 38.0504C42.3663 37.2612 42.7863 36.5842 43.1098 36.0195C43.2245 35.83 43.3519 35.7124 43.4919 35.6665C43.6488 35.5966 43.7755 35.5954 43.872 35.663C43.9855 35.7064 44.0584 35.8205 44.091 36.0051C44.12 36.1693 44.0825 36.3768 43.9787 36.6278ZM35.2645 33.2776C35.0183 33.3211 34.7426 33.4966 34.4372 33.8043C34.1523 34.1084 33.8874 34.5253 33.6423 35.0551C33.3936 35.5644 33.1854 36.1828 33.0175 36.9105C32.846 37.6177 32.7645 38.4148 32.7728 39.3019C32.9864 39.0738 33.2206 38.8421 33.4753 38.6068C33.7263 38.351 33.9756 38.0849 34.223 37.8086C34.9858 36.976 35.4964 36.2725 35.7548 35.698C36.0131 35.1236 36.1303 34.6481 36.1062 34.2716C36.0785 33.8745 35.9886 33.6048 35.8366 33.4624C35.6809 33.2994 35.4902 33.2379 35.2645 33.2776ZM41.695 43.4721C41.5912 43.7231 41.4626 43.8939 41.3093 43.9844C41.1392 44.099 40.9871 44.1364 40.8531 44.0966C40.7023 44.0809 40.5919 43.9945 40.5219 43.8376C40.4519 43.6807 40.4568 43.4683 40.5365 43.2004C40.5763 43.0665 40.6711 42.7642 40.8208 42.2935C40.95 41.8265 41.116 41.2684 41.3189 40.6191C41.4976 39.953 41.6998 39.2403 41.9256 38.4813C42.1478 37.7017 42.3566 36.9667 42.5522 36.2765C42.7684 35.5826 42.9664 34.9659 43.1463 34.4265C43.3225 33.8665 43.4523 33.4628 43.5356 33.2154C43.2738 33.0501 43.0946 32.9336 42.998 32.866C42.8979 32.7779 42.8002 32.5836 42.7049 32.283C42.6168 32.0236 42.6169 31.6639 42.705 31.2041C42.7932 30.7443 42.9363 30.296 43.1342 29.8592C43.3286 29.4018 43.5646 29.0005 43.8422 28.6554C44.1198 28.3103 44.4125 28.1106 44.7203 28.0564C45.2947 27.9551 45.7274 28.0692 46.0182 28.3987C46.3295 28.7246 46.5401 29.0788 46.6498 29.4614C46.7379 29.7209 46.7771 30.063 46.7673 30.4878C46.7576 30.9126 46.6689 31.3091 46.5011 31.6771C46.5699 31.7073 46.661 31.7441 46.7744 31.7876C46.8842 31.8105 47.052 31.8021 47.2777 31.7623C47.6059 31.7044 47.828 31.6441 47.9439 31.5814C48.0802 31.515 48.2921 31.4565 48.5793 31.4059C48.9281 31.3444 49.2316 31.3861 49.4898 31.5309C49.7445 31.6553 49.9671 31.8381 50.1578 32.0795C50.3448 32.3004 50.4962 32.5593 50.612 32.8562C50.7447 33.1289 50.8431 33.3866 50.907 33.6292C51.059 34.1313 51.0197 34.6882 50.7891 35.3001C50.5585 35.9119 50.2651 36.5877 49.909 37.3274C49.6941 37.7884 49.4883 38.3007 49.2915 38.8643C49.0947 39.4278 49.053 39.9112 49.1664 40.3143C49.2545 40.5738 49.3642 40.7765 49.4958 40.9226C49.6273 41.0686 49.929 41.1 50.4009 41.0168C50.7497 40.9553 51.1075 40.7653 51.4745 40.4467C51.8583 40.104 52.2313 39.6998 52.5934 39.234C52.9724 38.7441 53.3357 38.2252 53.6834 37.6773C54.0274 37.109 54.3443 36.5665 54.634 36.05C54.9201 35.513 55.1537 35.0382 55.3348 34.6255C55.5364 34.2091 55.6842 33.908 55.7784 33.7222C55.852 33.54 55.9655 33.4036 56.1188 33.3131C56.2721 33.2226 56.4157 33.1973 56.5496 33.2372C56.6836 33.277 56.7771 33.3874 56.8302 33.5685C56.9038 33.7459 56.8754 34.0048 56.745 34.3451C56.6581 34.5719 56.5005 34.9382 56.2724 35.4438C56.0647 35.9459 55.7943 36.5118 55.4611 37.1418C55.1485 37.7681 54.7881 38.4239 54.3801 39.1094C53.9685 39.7743 53.5189 40.4036 53.0312 40.9973C52.5605 41.5668 52.065 42.0561 51.5448 42.4652C51.0451 42.8706 50.5388 43.1186 50.0259 43.209C49.4924 43.3031 49.0332 43.2783 48.6483 43.1346C48.2633 42.9909 47.9327 42.7954 47.6563 42.5479C47.3969 42.2763 47.1851 41.9752 47.021 41.6445C46.8739 41.2897 46.7834 40.9566 46.7496 40.6452C46.7267 40.3954 46.7431 40.1281 46.7986 39.8433C46.8711 39.5343 46.9538 39.2236 47.0468 38.911C47.1566 38.5743 47.2683 38.2479 47.3818 37.9317C47.5122 37.5914 47.6239 37.265 47.7168 36.9524C47.9607 36.2959 48.1491 35.7444 48.2819 35.2979C48.4316 34.8273 48.4811 34.4483 48.4305 34.1611C48.3979 33.9764 48.3279 33.8195 48.2205 33.6904C48.1132 33.5612 47.9671 33.5129 47.7825 33.5455C47.6594 33.5672 47.5689 33.5937 47.5109 33.6251C47.4699 33.6323 47.4186 33.6414 47.3571 33.6522C47.316 33.6595 47.246 33.6824 47.1471 33.721C47.065 33.7355 46.9316 33.759 46.747 33.7915C46.4803 33.8386 46.2473 33.8373 46.0482 33.7878C45.8491 33.7383 45.6638 33.7075 45.4925 33.6954C45.4357 33.8535 45.3053 34.1938 45.1013 34.7164C44.8973 35.2389 44.6564 35.8525 44.3788 36.5573C44.1216 37.2584 43.8391 37.9958 43.5313 38.7693C43.2439 39.5393 42.9699 40.2645 42.7091 40.9451C42.4447 41.6053 42.2274 42.1724 42.0572 42.6467C41.8628 43.1041 41.7421 43.3792 41.695 43.4721ZM55.7954 54.6941C55.6409 54.6579 55.481 54.5909 55.3157 54.4931C55.1745 54.4122 55.0279 54.3006 54.8758 54.1582C54.7274 54.0362 54.5923 53.8697 54.4704 53.6585C54.6578 51.3619 54.8138 49.367 54.9383 47.6738C55.0423 45.9842 55.1421 44.5704 55.2376 43.4324C55.321 42.1061 55.3996 40.9922 55.4734 40.0907C55.5338 39.2338 55.5943 38.377 55.6548 37.5201C55.6923 36.7731 55.731 35.973 55.771 35.1197C55.8314 34.2629 55.8804 33.4609 55.9179 32.7139C55.982 31.8776 55.993 31.2198 55.9508 30.7407C55.905 30.2411 55.677 29.8476 55.2667 29.5603C55.4767 29.3118 55.6958 29.1145 55.9239 28.9685C56.1689 28.7983 56.3904 28.6747 56.5883 28.5975C56.8031 28.4961 57.0252 28.4358 57.2545 28.4165C57.8157 28.3599 58.185 28.4746 58.3623 28.7606C58.5602 29.0431 58.6676 29.5318 58.6844 30.227C58.6819 30.3332 58.6777 30.4291 58.6716 30.5148C58.6825 30.5764 58.6952 30.6482 58.7096 30.7302C58.939 30.3513 59.2009 29.9772 59.4954 29.608C59.79 29.2387 60.0899 28.9003 60.3953 28.5926C60.7212 28.2812 61.0561 28.0212 61.4001 27.8125C61.761 27.5796 62.1158 27.4324 62.4646 27.3709C62.9365 27.2877 63.3377 27.3439 63.6684 27.5394C64.0159 27.7109 64.3061 27.977 64.539 28.3379C64.7719 28.6988 64.9522 29.1218 65.0801 29.607C65.2043 30.0716 65.2978 30.5417 65.3605 31.0172C65.4304 31.5337 65.434 32.0937 65.3711 32.6971C65.3288 33.2969 65.2267 33.9178 65.0649 34.5598C64.9031 35.2019 64.6985 35.8409 64.451 36.4768C64.2035 37.1128 63.9282 37.7114 63.6253 38.2725C63.7109 38.2785 63.7658 38.29 63.79 38.3069C63.8105 38.3033 63.8226 38.3117 63.8262 38.3323C63.8262 38.3323 63.8382 38.3407 63.8624 38.3576C63.9034 38.3504 63.9752 38.3377 64.0778 38.3196C64.5497 38.2364 65.0101 38.0283 65.4591 37.6953C65.9081 37.3622 66.336 36.9695 66.7428 36.517C67.1459 36.0439 67.5231 35.5438 67.8744 35.0164C68.2462 34.4855 68.5703 33.9841 68.8467 33.5122C69.14 33.0163 69.3809 32.5824 69.5692 32.2107C69.7539 31.8185 69.8951 31.5398 69.9929 31.3745C70.1209 31.1404 70.2512 30.9799 70.384 30.893C70.5131 30.7856 70.6242 30.7554 70.7171 30.8025C70.81 30.8496 70.8728 30.9655 70.9053 31.1501C70.9343 31.3143 70.9107 31.5405 70.8346 31.829C70.7851 32.0281 70.6632 32.3563 70.4688 32.8137C70.2744 33.2711 70.0276 33.7906 69.7282 34.3722C69.4288 34.9539 69.0715 35.5669 68.6563 36.2113C68.2615 36.8521 67.827 37.447 67.3526 37.996C66.8783 38.5451 66.3689 39.0157 65.8246 39.4078C65.3044 39.8169 64.7673 40.0702 64.2133 40.1679C63.9466 40.215 63.7294 40.2427 63.5616 40.2511C63.3939 40.2595 63.243 40.2438 63.1091 40.204C62.9992 40.181 62.8876 40.1478 62.7742 40.1044C62.6644 40.0814 62.5322 40.0518 62.3777 40.0156C62.0591 40.368 61.7175 40.6503 61.353 40.8627C60.9921 41.0955 60.627 41.2445 60.2577 41.3096C59.909 41.3711 59.5903 41.3639 59.3019 41.2878C59.0376 41.2286 58.8053 41.1109 58.605 40.9347C58.4083 40.779 58.2388 40.5973 58.0964 40.3897C57.9504 40.1616 57.8267 39.9401 57.7254 39.7253C57.7194 39.811 57.7115 39.8864 57.7018 39.9516C57.7127 40.0131 57.7169 40.097 57.7145 40.2032C57.6419 41.2314 57.5862 42.4153 57.5474 43.7549C57.5171 44.9026 57.4771 46.2953 57.4274 47.933C57.4018 49.5876 57.3937 51.4612 57.4031 53.5539C57.3776 54.1295 57.2183 54.4855 56.925 54.6219C56.6112 54.7618 56.2347 54.7859 55.7954 54.6941ZM58.0628 34.6204C58.0217 34.9873 57.9812 35.4175 57.9414 35.9111C57.9184 36.3806 57.8911 36.946 57.8597 37.6073C58.0021 37.4553 58.1705 37.3304 58.3648 37.2327C58.5591 37.1349 58.7588 37.068 58.964 37.0318C59.1897 36.992 59.4986 37.0645 59.8908 37.2492C60.2794 37.4134 60.7434 37.5854 61.2828 37.7653C61.5255 37.3417 61.7711 36.8753 62.0198 36.3661C62.2854 35.8327 62.5081 35.2963 62.688 34.7568C62.8884 34.2138 63.0357 33.6695 63.13 33.124C63.2447 32.5749 63.2707 32.0626 63.208 31.5871C63.1405 30.9644 62.9837 30.4949 62.7375 30.1787C62.4914 29.8625 62.1529 29.7423 61.722 29.8183C61.086 29.9304 60.4554 30.433 59.8301 31.326C59.2217 32.1948 58.6326 33.293 58.0628 34.6204ZM73.4866 19.3349C73.4648 19.5714 73.3815 19.8188 73.2367 20.0771C73.1087 20.3112 72.9445 20.5199 72.7442 20.7033C72.5607 20.8626 72.3598 20.9827 72.1413 21.0635C71.9229 21.1443 71.731 21.1359 71.5657 21.0381C71.0769 20.7858 70.7897 20.4768 70.7041 20.1111C70.6149 19.7249 70.6439 19.3496 70.7912 18.9851C70.9348 18.6002 71.1406 18.2677 71.4086 17.9878C71.6729 17.6873 71.9143 17.4966 72.1328 17.4158C72.3512 17.335 72.5449 17.3537 72.7139 17.472C72.8997 17.5662 73.0536 17.7189 73.1754 17.9301C73.2937 18.1208 73.3763 18.3495 73.4233 18.6162C73.4909 18.8793 73.512 19.1189 73.4866 19.3349ZM70.3954 26.6389C70.4763 26.4977 70.6531 26.3607 70.9259 26.228C71.1987 26.0953 71.4853 25.9813 71.7858 25.886C72.0827 25.7702 72.3543 25.6906 72.6005 25.6472C72.8636 25.5796 73.0175 25.5525 73.0621 25.5658C73.0863 25.5827 73.0729 25.8071 73.0222 26.2392C72.9715 26.6712 72.9026 27.1805 72.8156 27.767C72.7286 28.3535 72.635 28.9624 72.5348 29.5935C72.4309 30.2042 72.3602 30.7032 72.3228 31.0906C72.2853 31.478 72.2364 31.9203 72.1759 32.4175C72.1119 32.8942 72.0581 33.3691 72.0146 33.8421C71.988 34.2911 71.9886 34.7141 72.0163 35.1111C72.044 35.5082 72.1272 35.8003 72.266 35.9873C72.412 36.2154 72.5555 36.3699 72.6967 36.4508C72.8343 36.5112 72.9749 36.5287 73.1185 36.5034C73.5289 36.431 74.002 36.1149 74.5379 35.555C75.0943 34.9915 75.6363 34.3459 76.1638 33.6182C76.7082 32.8665 77.2013 32.1237 77.6431 31.39C78.0813 30.6358 78.3994 30.0403 78.5973 29.6034C78.7253 29.3693 78.8659 29.207 79.0192 29.1165C79.193 29.0224 79.3384 29.0073 79.4555 29.0713C79.5931 29.1317 79.6781 29.2542 79.7107 29.4388C79.7638 29.6199 79.7402 29.8461 79.64 30.1177C79.413 30.75 79.0521 31.5224 78.5571 32.4347C78.0586 33.3264 77.5154 34.205 76.9275 35.0702C76.336 35.9149 75.7367 36.6552 75.1296 37.2911C74.543 37.9234 74.0361 38.2878 73.6088 38.3843C73.2637 38.4663 72.904 38.4663 72.5299 38.3842C72.1799 38.3189 71.8414 38.1988 71.5144 38.0238C71.2043 37.8246 70.9298 37.5874 70.6908 37.3122C70.4483 37.0165 70.286 36.6961 70.204 36.3509C70.052 35.8488 69.929 35.1513 69.835 34.2582C69.7374 33.3446 69.6892 32.4117 69.6906 31.4595C69.6883 30.4868 69.7361 29.5581 69.834 28.6735C69.9524 27.7853 70.1395 27.1071 70.3954 26.6389ZM93.2463 27.5599C93.361 27.3704 93.4901 27.263 93.6337 27.2377C93.7942 27.1882 93.9246 27.2076 94.0247 27.2957C94.1418 27.3596 94.2063 27.4858 94.2184 27.674C94.2509 27.8587 94.205 28.0783 94.0807 28.333C93.7849 28.9351 93.4313 29.5687 93.0196 30.2336C92.6044 30.878 92.1463 31.5194 91.6454 32.1577C91.165 32.7924 90.6689 33.3982 90.1571 33.975C89.6453 34.5518 89.1396 35.0429 88.6399 35.4483C88.0859 35.9057 87.5934 36.1723 87.1626 36.2483C86.7522 36.3206 86.2949 36.1263 85.7905 35.6652C85.338 35.2584 85.0647 34.7883 84.9706 34.2549C84.8935 33.6973 84.8954 32.9883 84.9764 32.1278C85.0295 31.5896 85.1177 30.95 85.2409 30.209C85.381 29.4438 85.465 28.7204 85.4929 28.0385C85.5412 27.353 85.4948 26.79 85.3537 26.3495C85.2089 25.8885 84.9006 25.6996 84.4287 25.7828C84.1005 25.8406 83.7613 26.0168 83.4113 26.3112C83.0818 26.602 82.7547 26.9664 82.43 27.4045C82.1222 27.8184 81.8337 28.2818 81.5645 28.7946C81.2953 29.3075 81.0653 29.8029 80.8746 30.2808C80.8515 31.1099 80.8267 31.9287 80.8 32.7373C80.7721 33.4191 80.7449 34.1644 80.7182 34.973C80.7085 35.7574 80.6842 36.4598 80.6455 37.0801C80.5405 37.2044 80.4198 37.2997 80.2834 37.3661C80.147 37.4324 80.0173 37.4764 79.8942 37.4982C79.7506 37.5235 79.6052 37.5385 79.4579 37.5434C79.2866 37.5313 79.1218 37.4968 78.9637 37.4401C78.8262 37.3797 78.6832 37.2886 78.5347 37.1667C78.3899 37.0653 78.2669 36.9072 78.1655 36.6923C78.4195 32.7339 78.6106 29.5588 78.7389 27.1668C78.8671 24.7749 78.9682 22.9483 79.042 21.6872C79.117 20.1931 79.1672 19.1583 79.1926 18.5826C79.1855 18.1819 79.1698 17.7933 79.1457 17.4168C79.1289 17.0813 79.0897 16.7391 79.0282 16.3904C78.9667 16.0416 78.8799 15.729 78.7677 15.4526C78.9137 15.3211 79.0736 15.2083 79.2474 15.1142C79.4417 15.0164 79.6276 14.9308 79.805 14.8572C80.0199 14.7558 80.2365 14.6647 80.455 14.5839C80.6734 14.5031 80.875 14.4464 81.0596 14.4138C81.2237 14.3849 81.3812 14.3783 81.5321 14.394C81.6793 14.3892 81.7825 14.4344 81.8416 14.5298C81.9828 14.6107 82.0703 14.8068 82.104 15.1182C82.1583 15.4259 82.1939 15.7476 82.2107 16.0831C82.1974 16.4873 82.1792 16.9242 82.1562 17.3937C82.0184 19.1315 81.822 20.8374 81.5672 22.5112C81.3087 24.1646 81.1111 25.9235 80.9745 27.7881C81.1688 27.3307 81.4127 26.854 81.706 26.358C81.9993 25.8621 82.3307 25.4017 82.7 24.977C83.0863 24.5281 83.5057 24.1474 83.9583 23.8348C84.4073 23.5018 84.9088 23.2865 85.4628 23.1888C85.75 23.1381 86.0258 23.1424 86.29 23.2016C86.5712 23.2366 86.8241 23.3507 87.0485 23.5438C87.2898 23.7128 87.4944 23.9729 87.6621 24.3241C87.8262 24.6548 87.945 25.0887 88.0185 25.6258C88.0764 25.954 88.0951 26.2998 88.0745 26.6631C88.0744 27.0227 88.0508 27.4288 88.0037 27.8814C87.953 28.3134 87.8702 28.804 87.7555 29.3531C87.6613 29.8985 87.5405 30.5333 87.3932 31.2574C87.2917 31.7619 87.2187 32.1873 87.174 32.5336C87.1293 32.88 87.2004 33.1636 87.3875 33.3845C87.63 33.6802 88.0035 33.6989 88.508 33.4407C89.0294 33.1584 89.756 32.4803 90.6878 31.4063C90.8979 31.1577 91.1296 30.8524 91.3831 30.4904C91.6366 30.1284 91.8798 29.7682 92.1128 29.4098C92.3422 29.0309 92.5546 28.6761 92.7502 28.3454C92.9457 28.0148 93.1111 27.7529 93.2463 27.5599ZM107.948 25.634C107.733 26.095 107.454 26.673 107.111 27.3681C106.765 28.0427 106.399 28.7311 106.016 29.4334C105.649 30.1116 105.274 30.7488 104.893 31.3449C104.528 31.9169 104.21 32.3326 103.939 32.5921C103.755 32.7513 103.537 32.8955 103.285 33.0246C103.033 33.1537 102.765 33.2539 102.481 33.325C102.218 33.3926 101.958 33.4173 101.701 33.3991C101.448 33.4015 101.218 33.3574 101.012 33.2669C100.802 33.1558 100.611 32.9778 100.441 32.7328C100.299 32.5252 100.144 32.2458 99.9762 31.8946C99.8291 31.5397 99.7169 31.0835 99.6397 30.526C99.292 31.4335 98.8605 32.1653 98.3451 32.7216C97.8261 33.2574 97.3179 33.6749 96.8207 33.9741C96.245 34.3083 95.653 34.5502 95.0447 34.6998C94.7575 34.7504 94.4316 34.7021 94.0672 34.5548C93.7063 34.4281 93.3769 34.1794 93.0789 33.8089C92.7772 33.4178 92.5377 32.8994 92.3604 32.2537C92.1795 31.5875 92.1205 30.7729 92.1833 29.8099C92.2499 28.5077 92.5005 27.2894 92.9351 26.155C93.3903 25.0171 93.9238 24.0239 94.5358 23.1756C95.1442 22.3067 95.7748 21.6244 96.4278 21.1284C97.0808 20.6325 97.6468 20.3635 98.126 20.3213C98.698 20.3262 99.1783 20.4107 99.5669 20.5749C99.8903 20.7294 100.129 21.0046 100.284 21.4005C100.455 21.7722 100.383 22.3244 100.068 23.0569C100.344 22.9447 100.573 22.862 100.754 22.809C100.956 22.7523 101.108 22.7149 101.21 22.6968C101.333 22.6751 101.417 22.6709 101.462 22.6841C101.49 22.7216 101.516 22.8121 101.542 22.9557C101.563 23.0788 101.574 23.3202 101.574 23.6798C101.574 24.0394 101.565 24.5276 101.547 25.1443C101.528 25.761 101.5 26.5593 101.461 27.5393C101.453 27.7312 101.443 27.9128 101.43 28.0842C101.435 28.2314 101.432 28.3907 101.419 28.5621C101.424 28.7093 101.424 28.8891 101.419 29.1015C101.415 29.3139 101.408 29.5794 101.401 29.898C101.413 30.0863 101.439 30.2933 101.479 30.519C101.536 30.7205 101.611 30.9082 101.705 31.082C101.799 31.2558 101.919 31.3934 102.064 31.4948C102.225 31.572 102.429 31.589 102.675 31.5456C102.881 31.5094 103.126 31.3393 103.41 31.0352C103.692 30.7106 103.983 30.3208 104.283 29.8659C104.58 29.3904 104.882 28.8824 105.188 28.3417C105.512 27.777 105.808 27.2382 106.078 26.7253C106.347 26.2124 106.584 25.7581 106.789 25.3623C107.015 24.9628 107.175 24.6702 107.269 24.4844C107.401 24.2708 107.547 24.1392 107.707 24.0898C107.864 24.0198 107.994 24.0391 108.098 24.1478C108.202 24.2564 108.245 24.4392 108.227 24.6963C108.229 24.9497 108.136 25.2623 107.948 25.634ZM99.1693 28.578C99.1996 28.1496 99.2376 27.6458 99.2836 27.0665C99.3295 26.4872 99.3586 25.9321 99.3707 25.4011C99.3828 24.8701 99.3805 24.4368 99.3636 24.1013C99.3637 23.7417 99.3245 23.5793 99.246 23.6143C99.1471 23.6529 99.0397 23.7036 98.9238 23.7663C98.8285 23.8255 98.7005 23.8797 98.54 23.9292C98.3795 23.9787 98.2208 24.0384 98.0639 24.1084C98.1701 23.7511 98.2154 23.4681 98.1998 23.2594C98.201 23.0264 98.1805 22.8502 98.1383 22.7308C98.0924 22.5908 98.0315 22.4851 97.9555 22.4139C97.6973 22.2691 97.3243 22.4935 96.8367 23.0872C96.3659 23.6568 95.8752 24.6529 95.3645 26.0757C95.1508 26.6634 95.0059 27.2813 94.9298 27.9294C94.85 28.5569 94.8162 29.1447 94.8282 29.6926C94.8607 30.2369 94.9336 30.7106 95.047 31.1137C95.1568 31.4962 95.2841 31.7382 95.4289 31.8396C95.6943 32.0255 95.9707 32.0931 96.2579 32.0425C96.5416 31.9713 96.8143 31.8386 97.0762 31.6443C97.355 31.4259 97.6164 31.1683 97.8602 30.8715C98.1245 30.571 98.346 30.2675 98.5247 29.961C98.7239 29.6509 98.8753 29.3703 98.9792 29.1193C99.1035 28.8647 99.1669 28.6843 99.1693 28.578ZM116.242 31.2795C115.77 31.3627 115.343 31.3428 114.962 31.2196C114.604 31.1134 114.298 30.9347 114.042 30.6836C113.786 30.4326 113.595 30.1278 113.468 29.7694C113.338 29.3904 113.286 28.9765 113.313 28.5275C113.324 28.2294 113.359 27.8318 113.42 27.3346C113.477 26.8168 113.528 26.2683 113.574 25.6891C113.637 25.0857 113.681 24.4961 113.706 23.9205C113.749 23.3207 113.751 22.7915 113.712 22.3329C113.67 21.8537 113.582 21.4778 113.45 21.205C113.313 20.9117 113.112 20.7886 112.845 20.8356C112.517 20.8935 112.198 21.0661 111.889 21.3532C111.577 21.6199 111.268 21.9705 110.964 22.4049C110.68 22.8357 110.397 23.3298 110.115 23.8874C109.849 24.4208 109.587 24.9747 109.329 25.5491C109.267 26.2792 109.222 26.9219 109.193 27.477C109.16 28.0116 109.131 28.5034 109.104 28.9523C109.094 29.3772 109.077 29.7609 109.053 30.1037C109.025 30.4259 109.006 30.736 108.995 31.0341C108.97 31.2502 108.821 31.4879 108.55 31.7473C108.274 31.9862 107.973 32.198 107.646 32.3826C107.319 32.5672 107.033 32.6812 106.786 32.7246C106.52 32.7716 106.39 32.6992 106.399 32.5073C106.398 32.3806 106.421 32.091 106.468 31.6384C106.494 31.1895 106.539 30.6633 106.602 30.0599C106.641 29.4396 106.684 28.7867 106.733 28.1012C106.781 27.4157 106.825 26.7628 106.863 26.1425C106.883 25.6525 106.903 25.1095 106.925 24.5133C106.941 24.0028 106.963 23.4066 106.99 22.7247C107.039 22.0393 107.097 21.2886 107.165 20.4728C107.286 20.3244 107.414 20.2067 107.547 20.1199C107.696 20.0088 107.85 19.9184 108.006 19.8484C108.16 19.7579 108.327 19.6861 108.508 19.633C108.672 19.6041 108.838 19.5854 109.006 19.577C109.153 19.5722 109.304 19.5879 109.458 19.6241C109.63 19.6362 109.786 19.6827 109.927 19.7636C109.891 19.918 109.855 20.1359 109.82 20.4171C109.782 20.6777 109.747 20.9589 109.715 21.2606C109.691 21.6034 109.648 21.96 109.586 22.3305C109.788 21.9141 110.02 21.4924 110.284 21.0652C110.564 20.6139 110.871 20.2 111.207 19.8235C111.563 19.4434 111.951 19.1212 112.369 18.857C112.785 18.5722 113.228 18.3882 113.7 18.305C114.09 18.2363 114.458 18.2876 114.806 18.459C115.154 18.6305 115.446 18.9069 115.682 19.2883C115.935 19.6455 116.121 20.0993 116.239 20.6497C116.378 21.1964 116.413 21.8143 116.344 22.5034L116.244 23.9172C116.218 24.3661 116.175 24.9026 116.116 25.5265C116.073 26.1263 116.001 26.7949 115.898 27.5322C115.855 28.0053 115.872 28.4042 115.95 28.7288C116.049 29.0499 116.283 29.1778 116.653 29.1127C117.022 29.0476 117.444 28.7405 117.918 28.1915C118.413 27.6388 118.892 26.9938 119.354 26.2565C119.816 25.5192 120.246 24.777 120.643 24.03C121.037 23.2625 121.331 22.6501 121.525 22.1927C121.663 21.8935 121.806 21.6883 121.956 21.5773C122.106 21.4663 122.227 21.4343 122.32 21.4814C122.433 21.5249 122.51 21.6595 122.55 21.8851C122.586 22.0903 122.551 22.3715 122.445 22.7287C122.352 23.0413 122.193 23.4606 121.968 23.9868C121.764 24.5093 121.504 25.0735 121.188 25.6793C120.872 26.2851 120.526 26.9065 120.152 27.5437C119.774 28.1603 119.369 28.7396 118.935 29.2814C118.499 29.8027 118.047 30.2419 117.581 30.5991C117.139 30.9731 116.693 31.1999 116.242 31.2795Z" fill="black"/>
<path d="M33.7089 66.6631C33.5267 66.2298 33.4761 65.9426 33.5569 65.8014C33.6547 65.636 33.8997 65.4659 34.292 65.291C34.3307 64.6707 34.3645 64.0829 34.3936 63.5278C34.4226 62.9727 34.4535 62.4278 34.4861 61.8931C34.5745 60.3544 34.6712 58.9835 34.7764 57.7803C34.8984 56.5529 35.0114 55.4541 35.1153 54.4838C35.2398 53.5099 35.36 52.632 35.4759 51.8499C35.5919 51.0679 35.7067 50.339 35.8202 49.6632C36.0169 49.4593 36.2209 49.2964 36.4321 49.1745C36.6397 49.0321 36.8407 48.9121 37.035 48.8143C37.2462 48.6925 37.4713 48.5893 37.7103 48.5049C37.9118 48.4482 38.0965 48.4156 38.2642 48.4072C38.4115 48.4024 38.5418 48.4217 38.6552 48.4652C38.7687 48.5086 38.8465 48.5901 38.8887 48.7096C38.4745 50.9193 38.1357 52.957 37.8723 54.8227C37.6295 56.6848 37.4374 58.2947 37.296 59.6524C37.1328 61.2466 37.018 62.6948 36.9514 63.997C37.8675 63.4335 38.7136 62.7132 39.4897 61.8359C40.2827 60.9345 40.981 59.9758 41.5846 58.9597C42.1845 57.9231 42.697 56.8702 43.1219 55.801C43.5638 54.7077 43.8898 53.6771 44.0999 52.7092C44.31 51.7413 44.4097 50.867 44.399 50.0862C44.4087 49.3017 44.2815 48.7001 44.0173 48.2813C44.4699 47.9688 44.9008 47.713 45.3099 47.5139C45.5211 47.3921 45.7257 47.2925 45.9236 47.2153C46.4317 46.9776 46.7763 47.0121 46.9573 47.3186C47.1552 47.6011 47.2896 48.0639 47.3608 48.7072C47.5561 50.1747 47.4382 51.6657 47.0071 53.1803C46.5966 54.6912 45.9869 56.1526 45.1782 57.5645C44.3658 58.9559 43.4188 60.244 42.3373 61.429C41.2763 62.6103 40.1894 63.5847 39.0766 64.3521C39.4182 64.2496 39.7513 64.1591 40.0759 64.0807C40.4006 64.0023 40.7065 63.9378 40.9938 63.8871C41.5477 63.7895 42.0715 63.7606 42.5651 63.8005C43.0551 63.8199 43.498 63.9322 43.8938 64.1374C44.3101 64.339 44.6486 64.6389 44.9092 65.0372C45.1903 65.4319 45.3767 65.949 45.4684 66.5887C45.601 67.5807 45.6214 68.4762 45.5295 69.2751C45.4377 70.074 45.3145 70.815 45.1599 71.4981C45.0295 72.198 44.9003 72.8449 44.7723 73.4386C44.6443 74.0324 44.6206 74.6183 44.7014 75.1964C44.7822 75.7745 44.9475 76.2319 45.1972 76.5686C45.4506 76.9259 45.7408 77.192 46.0679 77.3671C46.419 77.559 46.7678 77.6773 47.1141 77.722C47.4605 77.7667 47.7773 77.7638 48.0645 77.7131C48.4133 77.6516 48.7856 77.5437 49.1815 77.3892C49.581 77.2553 49.9256 77.11 50.2152 76.9531C50.3311 76.8904 50.4289 76.9049 50.5085 76.9966C50.6086 77.0847 50.666 77.1698 50.6804 77.2519C50.6949 77.3339 50.6689 77.4866 50.6025 77.7099C50.5397 77.9536 50.3756 78.1624 50.11 78.3361C49.8481 78.5304 49.5042 78.7391 49.0781 78.9623C48.6521 79.1855 48.0492 79.3659 47.2696 79.5034C46.7567 79.5938 46.2015 79.5648 45.6042 79.4162C45.0104 79.2882 44.4499 79.0486 43.9225 78.6973C43.3988 78.3666 42.9445 77.9496 42.5596 77.4462C42.1746 76.9429 41.9466 76.3697 41.8755 75.7264C41.7767 75.0457 41.7804 74.347 41.8867 73.6301C41.993 72.9133 42.1132 72.2151 42.2472 71.5357C42.4018 70.8526 42.531 70.2058 42.6349 69.5951C42.7556 68.9604 42.7811 68.3847 42.7111 67.8682C42.5894 66.9377 42.2323 66.292 41.6397 65.931C41.0436 65.5496 40.13 65.4674 38.899 65.6844C38.4887 65.7568 38.1025 65.8461 37.7404 65.9522C37.3989 66.0547 37.1189 66.1464 36.9004 66.2272C36.8385 69.1152 36.8297 71.2851 36.8742 72.737C36.9186 74.1888 36.9686 75.1319 37.024 75.5664L37.1217 76.1204C37.1507 76.2845 37.1899 76.4468 37.2393 76.6074C37.2924 76.7884 37.3539 76.9574 37.4239 77.1142C37.1016 77.4461 36.7667 77.7061 36.4191 77.8943C36.0956 78.0995 35.7957 78.2581 35.5193 78.3703C35.185 78.5139 34.8742 78.611 34.587 78.6616C34.4434 78.687 34.3064 78.69 34.1761 78.6706C34.0662 78.6477 33.9564 78.6247 33.8466 78.6018C33.7163 78.5825 33.6215 78.5251 33.5624 78.4298C33.6483 76.9973 33.733 75.6179 33.8164 74.2915C33.8999 72.9652 33.9658 71.7795 34.0142 70.7344C34.0784 69.5384 34.1413 68.3956 34.203 67.3058C34.1064 67.2382 34.0184 67.1585 33.9387 67.0668C33.8591 66.9751 33.7825 66.8405 33.7089 66.6631ZM64.5819 61.2511C64.367 61.7121 64.0881 62.2901 63.7453 62.9852C63.3988 63.6598 63.0337 64.3482 62.6498 65.0505C62.2828 65.7287 61.9086 66.3659 61.5272 66.962C61.1626 67.534 60.8446 67.9497 60.573 68.2092C60.3895 68.3684 60.1717 68.5126 59.9194 68.6417C59.6672 68.7708 59.3992 68.871 59.1156 68.9421C58.8525 69.0097 58.5924 69.0344 58.3354 69.0162C58.0819 69.0186 57.852 68.9745 57.6457 68.884C57.4357 68.7729 57.2457 68.5949 57.0755 68.3499C56.9331 68.1423 56.7781 67.8629 56.6104 67.5117C56.4632 67.1568 56.351 66.7006 56.2739 66.1431C55.9262 67.0506 55.4946 67.7824 54.9792 68.3387C54.4602 68.8745 53.9521 69.292 53.4548 69.5912C52.8791 69.9254 52.2871 70.1673 51.6789 70.3169C51.3916 70.3675 51.0658 70.3192 50.7013 70.1719C50.3405 70.0452 50.0111 69.7965 49.713 69.426C49.4114 69.0349 49.1719 68.5165 48.9946 67.8708C48.8136 67.2046 48.7546 66.39 48.8175 65.427C48.8841 64.1248 49.1347 62.9065 49.5693 61.7721C50.0244 60.6342 50.558 59.641 51.17 58.7927C51.7783 57.9238 52.409 57.2414 53.062 56.7455C53.7149 56.2496 54.281 55.9806 54.7601 55.9384C55.3322 55.9433 55.8125 56.0278 56.2011 56.192C56.5245 56.3465 56.7634 56.6217 56.9178 57.0176C57.0891 57.3893 57.0172 57.9415 56.7021 58.674C56.9785 58.5618 57.2072 58.4791 57.3883 58.4261C57.5898 58.3694 57.7419 58.332 57.8445 58.3139C57.9676 58.2922 58.0515 58.288 58.0961 58.3012C58.1239 58.3387 58.1504 58.4292 58.1757 58.5728C58.1974 58.6959 58.2083 58.9373 58.2082 59.2969C58.2082 59.6565 58.199 60.1447 58.1808 60.7614C58.1627 61.3781 58.1342 62.1764 58.0954 63.1564C58.087 63.3483 58.0767 63.5299 58.0646 63.7013C58.0694 63.8485 58.0657 64.0078 58.0536 64.1792C58.0585 64.3264 58.0584 64.5062 58.0536 64.7186C58.0487 64.931 58.0426 65.1965 58.0354 65.5151C58.0474 65.7034 58.0733 65.9104 58.1131 66.1361C58.1698 66.3376 58.2452 66.5253 58.3393 66.6991C58.4334 66.8729 58.5529 67.0105 58.6977 67.1119C58.8594 67.1891 59.0634 67.2061 59.3096 67.1627C59.5147 67.1265 59.7597 66.9563 60.0446 66.6523C60.3258 66.3277 60.6167 65.9379 60.9173 65.483C61.2143 65.0075 61.516 64.4995 61.8226 63.9588C62.1462 63.3941 62.4425 62.8553 62.7117 62.3424C62.9809 61.8295 63.2181 61.3752 63.4233 60.9794C63.6491 60.5799 63.809 60.2873 63.9032 60.1015C64.0348 59.8879 64.1808 59.7563 64.3413 59.7069C64.4982 59.6369 64.6286 59.6562 64.7323 59.7649C64.8361 59.8735 64.8789 60.0563 64.8608 60.3134C64.8632 60.5668 64.7702 60.8794 64.5819 61.2511ZM55.8035 64.1951C55.8337 63.7667 55.8718 63.2629 55.9177 62.6836C55.9637 62.1043 55.9927 61.5492 56.0049 61.0182C56.017 60.4872 56.0147 60.0539 55.9978 59.7184C55.9979 59.3588 55.9587 59.1964 55.8802 59.2314C55.7812 59.27 55.6738 59.3207 55.558 59.3834C55.4626 59.4426 55.3347 59.4968 55.1742 59.5463C55.0136 59.5958 54.8549 59.6555 54.698 59.7255C54.8043 59.3682 54.8496 59.0852 54.8339 58.8765C54.8352 58.6435 54.8147 58.4673 54.7725 58.3478C54.7266 58.2078 54.6657 58.1022 54.5897 58.031C54.3314 57.8862 53.9585 58.1106 53.4708 58.7043C53.0001 59.2739 52.5094 60.27 51.9987 61.6928C51.785 62.2805 51.6401 62.8984 51.5639 63.5465C51.4842 64.174 51.4503 64.7618 51.4623 65.3097C51.4948 65.854 51.5678 66.3277 51.6812 66.7308C51.7909 67.1133 51.9182 67.3553 52.063 67.4567C52.3285 67.6426 52.6049 67.7102 52.8921 67.6596C53.1757 67.5884 53.4485 67.4557 53.7104 67.2614C53.9892 67.043 54.2505 66.7854 54.4943 66.4886C54.7587 66.1881 54.9802 65.8846 55.1588 65.5781C55.358 65.268 55.5095 64.9874 55.6133 64.7364C55.7377 64.4818 55.8011 64.3013 55.8035 64.1951ZM73.583 57.9504C73.6433 57.8128 73.7332 57.7229 73.8527 57.6807C73.9891 57.6144 74.1038 57.6047 74.1967 57.6518C74.2896 57.6989 74.3487 57.7942 74.374 57.9378C74.4199 58.0778 74.403 58.2818 74.3233 58.5497C74.0504 59.4017 73.655 60.3388 73.1372 61.3609C72.6398 62.3794 72.0924 63.3538 71.4948 64.2842C70.8937 65.1941 70.2896 65.967 69.6824 66.6029C69.0753 67.2388 68.5358 67.5984 68.0639 67.6816C67.3869 67.801 66.7991 67.7671 66.3007 67.58C65.8023 67.3929 65.3854 67.1279 65.05 66.7851C64.735 66.4387 64.4865 66.0489 64.3043 65.6156C64.1185 65.1618 64.0118 64.7364 63.9841 64.3393C63.9467 64.0074 63.9154 63.41 63.8902 62.5471C63.8613 61.6637 63.8518 60.65 63.8616 59.5059C63.8678 58.3413 63.8819 57.1012 63.9038 55.7858C63.9426 54.4462 64.0007 53.1561 64.0781 51.9155C63.7366 52.018 63.395 52.1205 63.0535 52.2231C62.7119 52.3256 62.3975 52.4022 62.1103 52.4528C61.4537 52.5686 60.8256 52.6053 60.2258 52.563C59.6018 52.5038 59.1336 52.4277 58.821 52.3347C58.6424 52.2816 58.5507 52.1814 58.5459 52.0342C58.5375 51.8664 58.5719 51.7017 58.6492 51.54C58.7228 51.3578 58.8327 51.2009 58.9787 51.0694C59.1006 50.9209 59.2231 50.8359 59.3462 50.8142C59.7433 50.7865 60.1711 50.7533 60.6297 50.7148C61.0847 50.6557 61.5771 50.5689 62.1069 50.4543C62.4931 50.3651 62.857 50.2692 63.1986 50.1666C63.5606 50.0605 63.9106 49.9459 64.2486 49.8228C64.3416 48.791 64.448 47.8943 64.5675 47.1328C64.704 46.3472 64.8495 45.7927 65.004 45.4692C65.0475 45.3558 65.1664 45.2502 65.3607 45.1525C65.5719 45.0306 65.7988 44.9377 66.0414 44.8738C66.2804 44.7894 66.5163 44.7478 66.7492 44.749C66.9785 44.7297 67.1553 44.7726 67.2796 44.8776C67.4112 45.0237 67.5264 45.437 67.6252 46.1177C67.7241 46.7984 67.7632 47.68 67.7425 48.7625C68.6042 48.6106 69.3724 48.528 70.047 48.5148C70.7385 48.4775 71.3311 48.4788 71.8247 48.5187C72.3147 48.5381 72.7141 48.584 73.0231 48.6564C73.3284 48.7084 73.5565 48.7422 73.7073 48.7579C73.8582 48.7736 73.9481 48.8635 73.977 49.0277C74.0265 49.1882 74.0265 49.368 73.977 49.5671C73.9443 49.7421 73.8568 49.9056 73.7144 50.0577C73.572 50.2097 73.3946 50.2833 73.1821 50.2784C72.9734 50.2941 72.7302 50.2947 72.4526 50.2802C72.1956 50.262 71.8788 50.265 71.5022 50.2891C71.1462 50.3095 70.7184 50.3427 70.2187 50.3885C69.7191 50.4343 69.141 50.515 68.4845 50.6308C68.3614 50.6525 68.2196 50.6881 68.059 50.7375C67.9154 50.7629 67.7615 50.79 67.5974 50.8189C67.5732 51.1617 67.549 51.5044 67.5249 51.8472C67.5176 52.1658 67.4831 52.5103 67.4215 52.8808C67.2995 53.7485 67.1491 54.6953 66.9704 55.721C66.8109 56.6165 66.6117 57.6459 66.3726 58.8093C66.1334 59.9726 65.8557 61.2169 65.5393 62.5419C65.5718 63.4459 65.7014 64.1211 65.9282 64.5677C66.172 64.9901 66.4248 65.284 66.6866 65.4494C66.9931 65.628 67.3431 65.6932 67.7365 65.645C68.0515 65.6318 68.4027 65.4641 68.7902 65.1419C69.1945 64.7956 69.5947 64.3654 69.9906 63.8514C70.3865 63.3373 70.7752 62.7822 71.1566 62.1861C71.5586 61.5863 71.9213 61.0041 72.2448 60.4393C72.5683 59.8746 72.8496 59.3701 73.0886 58.9261C73.324 58.4615 73.4888 58.1362 73.583 57.9504ZM87.8172 57.1541C87.6023 57.615 87.3234 58.1931 86.9806 58.8882C86.6341 59.5628 86.269 60.2512 85.8851 60.9535C85.5181 61.6317 85.1439 62.2689 84.7625 62.865C84.3979 63.437 84.0799 63.8527 83.8083 64.1122C83.6248 64.2714 83.407 64.4156 83.1547 64.5447C82.9025 64.6738 82.6345 64.7739 82.3509 64.8451C82.0878 64.9127 81.8277 64.9374 81.5707 64.9192C81.3172 64.9216 81.0873 64.8775 80.881 64.787C80.671 64.6759 80.481 64.4979 80.3108 64.2529C80.1685 64.0453 80.0134 63.7659 79.8457 63.4146C79.6985 63.0598 79.5864 62.6036 79.5092 62.046C79.1615 62.9535 78.7299 63.6854 78.2145 64.2417C77.6955 64.7775 77.1874 65.195 76.6901 65.4942C76.1144 65.8284 75.5224 66.0703 74.9142 66.2199C74.6269 66.2705 74.3011 66.2222 73.9366 66.0749C73.5758 65.9481 73.2464 65.6995 72.9483 65.3289C72.6467 64.9379 72.4072 64.4195 72.2299 63.7738C72.0489 63.1076 71.9899 62.293 72.0528 61.33C72.1194 60.0278 72.37 58.8095 72.8046 57.6751C73.2597 56.5371 73.7933 55.544 74.4053 54.6957C75.0136 53.8268 75.6443 53.1444 76.2973 52.6485C76.9503 52.1526 77.5163 51.8835 77.9954 51.8414C78.5675 51.8463 79.0478 51.9308 79.4364 52.095C79.7598 52.2495 79.9987 52.5247 80.1531 52.9206C80.3244 53.2923 80.2525 53.8444 79.9375 54.577C80.2138 54.4648 80.4425 54.3821 80.6236 54.329C80.8251 54.2724 80.9772 54.235 81.0798 54.2169C81.2029 54.1952 81.2868 54.191 81.3314 54.2042C81.3592 54.2417 81.3857 54.3322 81.411 54.4758C81.4327 54.5989 81.4436 54.8403 81.4435 55.1999C81.4435 55.5595 81.4343 56.0477 81.4162 56.6644C81.398 57.2811 81.3695 58.0794 81.3307 59.0594C81.3223 59.2512 81.312 59.4329 81.2999 59.6042C81.3047 59.7515 81.301 59.9108 81.289 60.0822C81.2938 60.2294 81.2937 60.4092 81.2889 60.6216C81.284 60.834 81.278 61.0995 81.2707 61.4181C81.2827 61.6064 81.3086 61.8134 81.3484 62.0391C81.4051 62.2406 81.4805 62.4283 81.5746 62.6021C81.6687 62.7759 81.7882 62.9135 81.933 63.0149C82.0947 63.0921 82.2987 63.1091 82.5449 63.0656C82.75 63.0295 82.995 62.8593 83.2799 62.5553C83.5611 62.2307 83.852 61.8409 84.1526 61.3859C84.4496 60.9105 84.7513 60.4025 85.058 59.8618C85.3815 59.2971 85.6778 58.7583 85.947 58.2454C86.2162 57.7325 86.4534 57.2782 86.6586 56.8824C86.8844 56.4829 87.0443 56.1903 87.1385 56.0044C87.2701 55.7909 87.4161 55.6593 87.5766 55.6099C87.7335 55.5399 87.8639 55.5592 87.9676 55.6679C88.0714 55.7765 88.1142 55.9593 88.0961 56.2164C88.0985 56.4698 88.0055 56.7824 87.8172 57.1541ZM79.0388 60.0981C79.069 59.6697 79.1071 59.1659 79.1531 58.5866C79.199 58.0073 79.228 57.4522 79.2402 56.9211C79.2523 56.3901 79.25 55.9569 79.2331 55.6214C79.2332 55.2617 79.194 55.0994 79.1155 55.1344C79.0166 55.173 78.9091 55.2237 78.7933 55.2864C78.6979 55.3455 78.57 55.3998 78.4095 55.4493C78.249 55.4987 78.0902 55.5585 77.9333 55.6284C78.0396 55.2712 78.0849 54.9882 78.0692 54.7794C78.0705 54.5465 78.05 54.3703 78.0078 54.2508C77.9619 54.1108 77.901 54.0052 77.825 53.934C77.5667 53.7892 77.1938 54.0136 76.7061 54.6073C76.2354 55.1768 75.7447 56.173 75.234 57.5958C75.0203 58.1835 74.8754 58.8014 74.7992 59.4495C74.7195 60.077 74.6856 60.6647 74.6976 61.2127C74.7301 61.7569 74.8031 62.2306 74.9165 62.6337C75.0262 63.0163 75.1535 63.2583 75.2983 63.3597C75.5638 63.5456 75.8402 63.6132 76.1274 63.5626C76.411 63.4914 76.6838 63.3587 76.9457 63.1644C77.2245 62.946 77.4858 62.6884 77.7297 62.3916C77.994 62.0911 78.2155 61.7876 78.3941 61.4811C78.5933 61.171 78.7448 60.8904 78.8486 60.6394C78.973 60.3848 79.0364 60.2043 79.0388 60.0981Z" fill="black"/>
<path d="M25.3062 63.0195L15.9131 62.5935M24.782 67.3991C21.2301 68.0254 7.92596 70.3712 1.08923 71.5767M26.7725 71.3352L14.2103 77.0616" stroke="black"/>
<path d="M109.246 14.3499L107.792 9.47419M112.153 13.7763L111.388 5M114.888 13.7763L116.15 8.72849M117.719 15L119 11.8069M106.339 15L105 12.3231" stroke="black"/>
<path d="M98.4563 54.3402L110.749 39.1799C112.056 38.9909 113.508 39.2712 114.872 39.8644M98.4563 54.3402L99.0852 60.669M98.4563 54.3402C100.217 53.9463 102.305 54.1548 104.328 54.8109M112.001 60.9031L119.868 44.6384C119.521 43.7102 118.892 42.8152 118.09 42.0258M112.001 60.9031L105.857 63.9505M112.001 60.9031C111.387 59.5512 110.33 58.3227 109.026 57.295M99.0852 60.669L99.7141 66.9978L105.857 63.9505M99.0852 60.669C99.0852 60.669 100.994 60.731 102.707 61.5608C104.419 62.3906 105.857 63.9505 105.857 63.9505M109.026 57.295L118.09 42.0258M109.026 57.295C107.656 56.2157 106.015 55.3577 104.328 54.8109M118.09 42.0258C117.186 41.1366 116.062 40.3816 114.872 39.8644M104.328 54.8109L114.872 39.8644" stroke="black" stroke-width="2"/>
<line x1="28.9132" y1="84.4071" x2="96.3989" y2="72.5076" stroke="black"/>
</svg>
